<svg width="142" height="50" viewBox="0 0 142 50" xmlns="http://www.w3.org/2000/svg" xmlns:xlink="http://www.w3.org/1999/xlink"><title>logo@3x</title><defs><path id="a" d="M11.888 49.823V.477H.615v49.346h11.273z"/></defs><g fill="none" fill-rule="evenodd"><path d="M62 23V1h11.064C78.211 1 81 4.225 81 8.079c0 3.843-2.83 7.107-7.936 7.107h-6.026V23H62zM75.869 8.079c0-1.842-1.491-2.96-3.48-2.96h-5.351v5.933h5.35c1.99 0 3.48-1.143 3.48-2.973zM99.378 23l-1.403-3.729h-9.91L86.607 23H81l8.938-22h6.164L105 23h-5.622zM93.02 5.678l-3.61 9.475h7.22l-3.61-9.475zM112.652 23v-9L104 1h5.448l5.602 8.829L120.552 1H126l-8.568 13v9z" fill="#FF7226"/><path d="M62 50V28h11.372c4.099 0 6.195 2.671 6.195 5.603 0 2.78-1.677 4.624-3.71 5.054C78.16 39.007 80 41.28 80 44.061 80 47.36 77.83 50 73.716 50H62zm12.884-15.566c0-1.382-.973-2.397-2.53-2.397h-5.76v4.775h5.76c1.557 0 2.53-.996 2.53-2.378zm.418 8.964c0-1.378-.973-2.561-2.783-2.561h-5.925v5.11h5.925c1.75 0 2.783-.966 2.783-2.55zM82 38.5C82 31.792 86.836 27 93.477 27 100.134 27 105 31.792 105 38.5c0 6.695-4.866 11.5-11.523 11.5C86.837 50 82 45.195 82 38.5m18.18 0c0-4.163-2.648-7.306-6.703-7.306s-6.672 3.143-6.672 7.306c0 4.135 2.617 7.306 6.672 7.306s6.703-3.171 6.703-7.306M121.45 50l-5.456-8.058L110.505 50H105l7.893-11.282L105.477 28h5.535l4.982 7.523L120.926 28h5.582l-7.4 10.684L127 50zM0 24.5l7.126-12.25 3.985-6.854 3.202 5.383-2.44 4.192L6.331 24.5l5.542 9.53 5.542 9.528h.072L28.79 24.441l-11.302-19h-.072L14.214.064 14.251 0h28.5l7.126 12.25L57 24.5l-7.123 12.25L42.752 49H26.774L30 43.558h9.585l5.542-9.527L50.67 24.5l-5.543-9.53-5.542-9.528H23.764l11.309 19-11.327 19.116h.013L20.52 49h-6.269L7.126 36.75z" fill="#3681C7"/><g transform="translate(130)"><mask id="b" fill="#fff"><use xlink:href="#a"/></mask><path d="M.934 7.82l6.929-2.89c.17-.064.28-.094.358-.094.078 0 .186.048.326.113a4.16 4.16 0 0 1 1.523 1.194c.342.418.559.888.667 1.242l1.152-.354c-.064-.357-.297-1.052-.886-1.743-.809-.97-2.13-1.664-4.709-2.68L.934.477v1.5L5.347 3.53c.544.193 1.118.352 1.57.5v.03a28.77 28.77 0 0 0-1.54.5L.934 6.272V7.82zm3.03 6.244c-.949-.11-2.223-.74-2.223-2.176 0-1.6 1.352-1.985 2.223-1.971v4.147zm.978-5.467c-.14-.017-.358-.051-.637-.051-1.382 0-3.542.68-3.542 3.23 0 2.272 1.786 3.66 4.053 3.66 2.271 0 3.792-1.436 3.792-3.84 0-1.244-.247-2.1-.465-2.599l-.98.242c.219.535.39 1.147.39 2.164 0 1.42-.76 2.645-2.61 2.68V8.596zm3.512 15.23V22.41H3.932c-.233 0-.466-.035-.636-.1a2.001 2.001 0 0 1-1.399-1.901c0-1.341 1.01-1.808 2.222-1.808h4.335v-1.422h-4.49c-2.58 0-3.2 1.677-3.2 2.759 0 1.291.697 2.197 1.412 2.584v.03l-1.242.081v1.26a26.044 26.044 0 0 1 2.035-.064h5.485zm-6.665 5.585c0-1.681 1.615-2.343 2.889-2.343 1.694 0 2.92 1.019 2.92 2.373 0 1.39-1.242 2.372-2.89 2.372-1.428 0-2.92-.725-2.92-2.402zm-1.026-.034c0 2.161 1.475 3.871 3.993 3.871 2.377 0 3.868-1.629 3.868-3.744 0-1.887-1.212-3.888-3.992-3.888-2.3 0-3.869 1.518-3.869 3.76zm7.69 16.767v-1.39H3.918c-.234 0-.467-.03-.668-.112-.684-.228-1.368-.871-1.368-1.758 0-1.083.871-1.632 2.067-1.632h4.506v-1.387H3.807c-.249 0-.496-.048-.682-.113-.669-.241-1.244-.871-1.244-1.677 0-1.147.871-1.696 2.316-1.696h4.257v-1.388H4.026c-2.611 0-3.263 1.536-3.263 2.565 0 .743.185 1.26.528 1.73.232.32.56.627.979.871v.03c-.885.34-1.507 1.148-1.507 2.213 0 1.288.668 2.014 1.383 2.45v.05l-1.212.066v1.242a26.044 26.044 0 0 1 2.035-.064h5.485zm-5.88 2.724c0-.594-.419-.966-.98-.966-.573 0-.978.385-.978.95s.405.97.979.97c.56 0 .98-.389.98-.954z" fill="#FF7226" mask="url(#b)"/></g></g></svg>